<?xml version="1.0" encoding="iso-8859-1"?>
<!-- Uploaded to: SVG Repo, www.svgrepo.com, Generator: SVG Repo Mixer Tools -->
<svg height="800px" width="800px" version="1.1" id="Layer_1" xmlns="http://www.w3.org/2000/svg" xmlns:xlink="http://www.w3.org/1999/xlink" 
	viewBox="0 0 511.777 511.777" xml:space="preserve">
<g transform="translate(1 1)">
	<path id="SVGCleanerId_0" style="fill:#FFDD09;" d="M271.843,438.372c0,23.893,18.773,42.667,42.667,42.667
		c23.893,0,42.667-18.773,42.667-42.667c0-23.893-18.773-42.667-42.667-42.667C290.617,395.706,271.843,414.479,271.843,438.372"/>
	<path id="SVGCleanerId_1" style="fill:#FFDD09;" d="M75.577,438.372c0,23.893,18.773,42.667,42.667,42.667
		s42.667-18.773,42.667-42.667c0-23.893-18.773-42.667-42.667-42.667S75.577,414.479,75.577,438.372"/>
	<g>
		<path id="SVGCleanerId_0_1_" style="fill:#FFDD09;" d="M271.843,438.372c0,23.893,18.773,42.667,42.667,42.667
			c23.893,0,42.667-18.773,42.667-42.667c0-23.893-18.773-42.667-42.667-42.667C290.617,395.706,271.843,414.479,271.843,438.372"/>
	</g>
	<g>
		<path id="SVGCleanerId_1_1_" style="fill:#FFDD09;" d="M75.577,438.372c0,23.893,18.773,42.667,42.667,42.667
			s42.667-18.773,42.667-42.667c0-23.893-18.773-42.667-42.667-42.667S75.577,414.479,75.577,438.372"/>
	</g>
	<path style="fill:#FFDD09;" d="M374.243,361.572l44.373-221.867H41.443c-22.187,0-38.4,21.333-33.28,42.667l43.52,153.6
		c4.267,14.507,17.92,25.6,33.28,25.6"/>
	<path style="fill:#FFFFFF;" d="M76.43,335.972l-42.667-153.6c-5.973-21.333,10.24-42.667,33.28-42.667H42.297
		c-22.187,0-38.4,21.333-33.28,42.667l43.52,153.6c4.267,14.507,17.92,25.6,33.28,25.6h23.893
		C94.35,361.572,80.697,351.332,76.43,335.972"/>
	<polygon style="fill:#FD9808;" points="416.91,139.706 372.537,361.572 346.937,361.572 391.31,139.706 	"/>
	<g>
		<path style="fill:#FCC309;" d="M451.043,97.039c0,14.507,11.093,25.6,25.6,25.6c14.507,0,25.6-11.093,25.6-25.6
			s-11.093-25.6-25.6-25.6C462.137,71.439,451.043,82.532,451.043,97.039"/>
		<path style="fill:#FCC309;" d="M77.283,139.706H237.71l-30.72-104.96c-1.707-4.267-5.973-6.827-10.24-5.973L64.483,69.732
			c-5.12,0.853-7.68,5.973-5.973,10.24L77.283,139.706z"/>
	</g>
	<path style="fill:#FFFFFF;" d="M90.083,69.732l116.907-35.84c-1.707-3.413-5.973-5.973-10.24-4.267L64.483,69.732
		c-4.267,0.853-6.827,5.973-5.973,10.24l18.773,59.733h24.747L84.11,79.972C82.403,75.706,84.963,70.586,90.083,69.732"/>
	<path style="fill:#FCC309;" d="M374.243,79.972h-153.6l17.92,59.733h144.213v-51.2C382.777,83.386,379.363,79.972,374.243,79.972"
		/>
	<path style="fill:#FD9808;" d="M374.243,79.972h-25.6c5.12,0,8.533,3.413,8.533,8.533v51.2h25.6v-51.2
		C382.777,83.386,378.51,79.972,374.243,79.972"/>
	<path style="fill:#FCC309;" d="M220.643,79.972H347.79l-5.12-41.813c-0.853-5.973-5.973-10.24-11.947-9.387L209.55,43.279
		L220.643,79.972z"/>
	<path id="SVGCleanerId_2" d="M314.51,489.572c-28.16,0-51.2-23.04-51.2-51.2s23.04-51.2,51.2-51.2c28.16,0,51.2,23.04,51.2,51.2
		S342.67,489.572,314.51,489.572z M314.51,404.239c-18.773,0-34.133,15.36-34.133,34.133s15.36,34.133,34.133,34.133
		s34.133-15.36,34.133-34.133S333.283,404.239,314.51,404.239z"/>
	<path id="SVGCleanerId_3" d="M118.243,489.572c-28.16,0-51.2-23.04-51.2-51.2s23.04-51.2,51.2-51.2s51.2,23.04,51.2,51.2
		S146.403,489.572,118.243,489.572z M118.243,404.239c-18.773,0-34.133,15.36-34.133,34.133s15.36,34.133,34.133,34.133
		s34.133-15.36,34.133-34.133S137.017,404.239,118.243,404.239z"/>
	<g>
		<path id="SVGCleanerId_2_1_" d="M314.51,489.572c-28.16,0-51.2-23.04-51.2-51.2s23.04-51.2,51.2-51.2
			c28.16,0,51.2,23.04,51.2,51.2S342.67,489.572,314.51,489.572z M314.51,404.239c-18.773,0-34.133,15.36-34.133,34.133
			s15.36,34.133,34.133,34.133s34.133-15.36,34.133-34.133S333.283,404.239,314.51,404.239z"/>
	</g>
	<g>
		<path id="SVGCleanerId_3_1_" d="M118.243,489.572c-28.16,0-51.2-23.04-51.2-51.2s23.04-51.2,51.2-51.2s51.2,23.04,51.2,51.2
			S146.403,489.572,118.243,489.572z M118.243,404.239c-18.773,0-34.133,15.36-34.133,34.133s15.36,34.133,34.133,34.133
			s34.133-15.36,34.133-34.133S137.017,404.239,118.243,404.239z"/>
	</g>
	<path d="M76.43,438.372H32.91c-5.12,0-8.533-3.413-8.533-8.533c0-5.12,3.413-8.533,8.533-8.533h43.52
		c5.12,0,8.533,3.413,8.533,8.533C84.963,434.959,81.55,438.372,76.43,438.372z"/>
	<path d="M272.697,438.372h-112.64c-5.12,0-8.533-3.413-8.533-8.533c0-5.12,3.413-8.533,8.533-8.533h112.64
		c5.12,0,8.533,3.413,8.533,8.533C281.23,434.959,277.817,438.372,272.697,438.372z"/>
	<path d="M382.777,438.372h-26.453c-5.12,0-8.533-3.413-8.533-8.533c0-5.12,3.413-8.533,8.533-8.533h26.453
		c6.827,0,14.507-3.413,18.773-8.533c5.12-5.12,6.827-12.8,6.827-19.627c-1.707-12.8-12.8-23.04-27.307-23.04h-6.827l0,0H84.963
		c-19.627,0-35.84-12.8-40.96-31.573l-43.52-153.6c-3.413-12.8-0.853-26.453,6.827-36.693c8.533-10.24,20.48-17.067,34.133-17.067
		h377.173c2.56,0,5.12,0.853,6.827,3.413c1.707,1.707,2.56,4.267,1.707,6.827l-42.667,211.627c21.333,1.707,38.4,17.92,40.96,38.4
		c0.853,11.947-2.56,23.893-11.093,33.28C406.67,433.252,394.723,438.372,382.777,438.372z M41.443,148.239
		c-8.533,0-15.36,3.413-20.48,10.24c-5.12,5.973-5.973,14.507-4.267,22.187l43.52,153.6c2.56,11.093,12.8,18.773,24.747,18.773
		h282.453l40.96-204.8H41.443z"/>
	<path d="M418.617,148.239c-0.853,0-0.853,0-1.707,0c-4.267-0.853-7.68-5.12-6.827-10.24l6.827-42.667
		c0.853-3.413,4.267-6.827,8.533-6.827h25.6c5.12,0,8.533,3.413,8.533,8.533c0,5.12-3.413,8.533-8.533,8.533H432.27l-5.973,35.84
		C426.297,145.679,422.03,148.239,418.617,148.239z"/>
	<path d="M476.643,131.172c-18.773,0-34.133-15.36-34.133-34.133s15.36-34.133,34.133-34.133c18.773,0,34.133,15.36,34.133,34.133
		S495.417,131.172,476.643,131.172z M476.643,79.972c-9.387,0-17.067,7.68-17.067,17.067s7.68,17.067,17.067,17.067
		c9.387,0,17.067-7.68,17.067-17.067S486.03,79.972,476.643,79.972z"/>
	<path d="M314.51,455.439c-9.387,0-17.067-7.68-17.067-17.067s7.68-17.067,17.067-17.067s17.067,7.68,17.067,17.067
		S323.897,455.439,314.51,455.439"/>
	<path d="M118.243,455.439c-9.387,0-17.067-7.68-17.067-17.067s7.68-17.067,17.067-17.067s17.067,7.68,17.067,17.067
		S127.63,455.439,118.243,455.439"/>
	<path d="M238.563,148.239H78.137c-3.413,0-6.827-2.56-8.533-5.973L50.83,82.532c-1.707-4.267-0.853-9.387,0.853-12.8
		c2.56-4.267,5.973-6.827,10.24-8.533l131.413-40.107c4.267-1.707,9.387-0.853,12.8,1.707c4.267,2.56,6.827,5.973,8.533,10.24
		l31.573,104.107c0.853,2.56,0,5.12-1.707,7.68C243.683,147.386,241.123,148.239,238.563,148.239z M84.11,131.172h142.507
		l-28.16-93.867L67.043,77.412L84.11,131.172z"/>
	<path d="M382.777,148.239H238.563c-3.413,0-6.827-2.56-8.533-5.973l-17.92-59.733c-0.853-2.56,0-5.12,1.707-7.68
		c1.707-2.56,4.267-3.413,6.827-3.413h153.6c9.387,0,17.067,7.68,17.067,17.067v51.2
		C391.31,144.826,387.897,148.239,382.777,148.239z M244.537,131.172h129.707V88.506H231.737L244.537,131.172z"/>
	<path d="M347.79,88.506H220.643c-3.413,0-6.827-2.56-8.533-5.973l-11.093-36.693c-0.853-2.56,0-5.12,0.853-6.827
		c1.707-1.707,4.267-3.413,6.827-3.413l121.173-15.36c5.12,0,10.24,0.853,14.507,4.267s6.827,7.68,6.827,12.8l5.12,41.813
		c0,2.56-0.853,5.12-1.707,6.827C352.91,87.652,350.35,88.506,347.79,88.506z M226.617,71.439h111.787l-4.267-32.427
		c0-0.853-0.853-0.853-0.853-1.707s-0.853,0-1.707,0L220.643,50.959L226.617,71.439z"/>
	<path d="M101.177,233.572c-5.12,0-8.533-3.413-8.533-8.533v-51.2c0-5.12,3.413-8.533,8.533-8.533s8.533,3.413,8.533,8.533v51.2
		C109.71,230.159,106.297,233.572,101.177,233.572z"/>
	<path d="M126.777,207.972h-51.2c-5.12,0-8.533-3.413-8.533-8.533c0-5.12,3.413-8.533,8.533-8.533h51.2
		c5.12,0,8.533,3.413,8.533,8.533C135.31,204.559,131.897,207.972,126.777,207.972z"/>
	<path d="M101.177,335.972c-5.12,0-8.533-3.413-8.533-8.533v-51.2c0-5.12,3.413-8.533,8.533-8.533s8.533,3.413,8.533,8.533v51.2
		C109.71,332.559,106.297,335.972,101.177,335.972z"/>
	<path d="M126.777,310.372h-51.2c-5.12,0-8.533-3.413-8.533-8.533c0-5.12,3.413-8.533,8.533-8.533h51.2
		c5.12,0,8.533,3.413,8.533,8.533S131.897,310.372,126.777,310.372z"/>
	<path d="M212.11,233.572c-5.12,0-8.533-3.413-8.533-8.533v-51.2c0-5.12,3.413-8.533,8.533-8.533c5.12,0,8.533,3.413,8.533,8.533
		v51.2C220.643,230.159,217.23,233.572,212.11,233.572z"/>
	<path d="M237.71,207.972h-51.2c-5.12,0-8.533-3.413-8.533-8.533c0-5.12,3.413-8.533,8.533-8.533h51.2
		c5.12,0,8.533,3.413,8.533,8.533C246.243,204.559,242.83,207.972,237.71,207.972z"/>
	<path d="M212.11,335.972c-5.12,0-8.533-3.413-8.533-8.533v-51.2c0-5.12,3.413-8.533,8.533-8.533c5.12,0,8.533,3.413,8.533,8.533
		v51.2C220.643,332.559,217.23,335.972,212.11,335.972z"/>
	<path d="M237.71,310.372h-51.2c-5.12,0-8.533-3.413-8.533-8.533c0-5.12,3.413-8.533,8.533-8.533h51.2
		c5.12,0,8.533,3.413,8.533,8.533S242.83,310.372,237.71,310.372z"/>
	<path d="M323.043,233.572c-5.12,0-8.533-3.413-8.533-8.533v-51.2c0-5.12,3.413-8.533,8.533-8.533c5.12,0,8.533,3.413,8.533,8.533
		v51.2C331.577,230.159,328.163,233.572,323.043,233.572z"/>
	<path d="M348.643,207.972h-51.2c-5.12,0-8.533-3.413-8.533-8.533c0-5.12,3.413-8.533,8.533-8.533h51.2
		c5.12,0,8.533,3.413,8.533,8.533C357.177,204.559,353.763,207.972,348.643,207.972z"/>
	<path d="M323.043,335.972c-5.12,0-8.533-3.413-8.533-8.533v-51.2c0-5.12,3.413-8.533,8.533-8.533c5.12,0,8.533,3.413,8.533,8.533
		v51.2C331.577,332.559,328.163,335.972,323.043,335.972z"/>
	<path d="M348.643,310.372h-51.2c-5.12,0-8.533-3.413-8.533-8.533c0-5.12,3.413-8.533,8.533-8.533h51.2
		c5.12,0,8.533,3.413,8.533,8.533S353.763,310.372,348.643,310.372z"/>
</g>
</svg>